<?xml version="1.0" standalone="no"?><!DOCTYPE svg PUBLIC "-//W3C//DTD SVG 1.1//EN" "http://www.w3.org/Graphics/SVG/1.1/DTD/svg11.dtd"><svg t="1626130145583" class="icon" viewBox="0 0 1024 1024" version="1.1" xmlns="http://www.w3.org/2000/svg" p-id="6555" xmlns:xlink="http://www.w3.org/1999/xlink" width="200" height="200"><defs><style type="text/css"></style></defs><path d="M871.253333 434.346667L542.293333 98.133333a42.666667 42.666667 0 0 0-60.586666 0l-328.96 336.64A85.333333 85.333333 0 0 0 128 495.786667V853.333333a85.333333 85.333333 0 0 0 80.64 85.333334h606.72A85.333333 85.333333 0 0 0 896 853.333333v-357.546666a88.32 88.32 0 0 0-24.746667-61.44zM426.666667 853.333333v-256h170.666666v256z m384 0h-128v-298.666666a42.666667 42.666667 0 0 0-42.666667-42.666667H384a42.666667 42.666667 0 0 0-42.666667 42.666667v298.666666H213.333333v-359.253333l298.666667-305.066667 298.666667 306.773334z" fill="#EAEAEA" p-id="6556"></path></svg>