<?xml version="1.0" standalone="no"?><!DOCTYPE svg PUBLIC "-//W3C//DTD SVG 1.1//EN" "http://www.w3.org/Graphics/SVG/1.1/DTD/svg11.dtd"><svg class="icon" width="200px" height="200.00px" viewBox="0 0 1024 1024" version="1.1" xmlns="http://www.w3.org/2000/svg"><path fill="#EAEAEA" d="M853.333333 469.333333h128v85.333334h-128v-85.333334M42.666667 469.333333h128v85.333334H42.666667v-85.333334M554.666667 42.666667v128h-85.333334V42.666667h85.333334M209.92 149.333333l90.88 91.306667-60.586667 60.16L149.333333 210.346667 209.92 149.333333m513.28 90.88l90.453333-90.88 61.013334 61.013334-90.88 90.453333-60.586667-60.586667M512 256a256 256 0 0 1 256 256c0 94.72-51.626667 177.493333-128 221.866667V810.666667a42.666667 42.666667 0 0 1-42.666667 42.666666h-170.666666a42.666667 42.666667 0 0 1-42.666667-42.666666v-76.8c-76.373333-44.373333-128-127.146667-128-221.866667a256 256 0 0 1 256-256m85.333333 640v42.666667a42.666667 42.666667 0 0 1-42.666666 42.666666h-85.333334a42.666667 42.666667 0 0 1-42.666666-42.666666v-42.666667h170.666666m-128-128h85.333334v-90.88c73.813333-18.773333 128-85.76 128-165.12a170.666667 170.666667 0 0 0-170.666667-170.666667 170.666667 170.666667 0 0 0-170.666667 170.666667c0 79.36 54.186667 146.346667 128 165.12V768z"  /></svg>