<?xml version="1.0" standalone="no"?><!DOCTYPE svg PUBLIC "-//W3C//DTD SVG 1.1//EN" "http://www.w3.org/Graphics/SVG/1.1/DTD/svg11.dtd"><svg class="icon" width="200px" height="200.00px" viewBox="0 0 1024 1024" version="1.1" xmlns="http://www.w3.org/2000/svg"><path fill="#EAEAEA" d="M810.666667 384a298.666667 298.666667 0 0 0-298.666667-298.666667h-5.12A302.933333 302.933333 0 0 0 213.333333 372.906667a298.666667 298.666667 0 0 0 131.413334 256A85.333333 85.333333 0 0 1 384 703.146667V725.333333a42.666667 42.666667 0 0 0 42.666667 42.666667h170.666666a42.666667 42.666667 0 0 0 42.666667-42.666667v-22.186666a85.333333 85.333333 0 0 1 38.826667-71.68A298.666667 298.666667 0 0 0 810.666667 384z m-179.626667 176.64a170.666667 170.666667 0 0 0-64 79.36h-110.08a174.08 174.08 0 0 0-64.426667-79.36A213.333333 213.333333 0 0 1 298.666667 375.893333 218.453333 218.453333 0 0 1 508.16 170.666667H512a213.333333 213.333333 0 0 1 119.04 389.973333zM426.666667 878.506667a42.666667 42.666667 0 0 0 12.373333 29.866666l17.92 17.92a42.666667 42.666667 0 0 0 29.866667 12.373334h50.346666a42.666667 42.666667 0 0 0 29.866667-12.373334l17.92-17.92a42.666667 42.666667 0 0 0 12.373333-29.866666V853.333333h-170.666666z" /></svg>